HIERARCHY
ROOT base
{
	OFFSET 0.0 0.0 0.0
	CHANNELS 6 Xposition Yposition Zposition Zrotation Yrotation Xrotation
	JOINT root
	{
		OFFSET 0 0 0
		CHANNELS 6 Xposition Yposition Zposition Zrotation Yrotation Xrotation
		JOINT chest
		{
			OFFSET 0 4.72302 0
			CHANNELS 3 Zrotation Yrotation Xrotation
			JOINT neck
			{
				OFFSET 0 4.47788 0
				CHANNELS 3 Zrotation Yrotation Xrotation
				End Site
				{
					OFFSET 0.0 0.0 0.0
				}
			}
			JOINT right_shoulder
			{
				OFFSET -0.481 4.87 3.6622
				CHANNELS 3 Zrotation Yrotation Xrotation
				JOINT right_elbow
				{
					OFFSET 0 -5.49576 0
					CHANNELS 3 Zrotation Yrotation Xrotation
					JOINT right_wrist
					{
						OFFSET 0 -5.17894 0
						CHANNELS 3 Zrotation Yrotation Xrotation
						End Site
						{
							OFFSET 0.0 0.0 0.0
						}
					}
				}
			}
			JOINT left_shoulder
			{
				OFFSET -0.481 4.87 -3.6622
				CHANNELS 3 Zrotation Yrotation Xrotation
				JOINT left_elbow
				{
					OFFSET 0 -5.49576 0
					CHANNELS 3 Zrotation Yrotation Xrotation
					JOINT left_wrist
					{
						OFFSET 0 -5.17894 0
						CHANNELS 3 Zrotation Yrotation Xrotation
						End Site
						{
							OFFSET 0.0 0.0 0.0
						}
					}
				}
			}
		}
		JOINT right_hip
		{
			OFFSET 0 0 1.69774
			CHANNELS 3 Zrotation Yrotation Xrotation
			JOINT right_knee
			{
				OFFSET 0 -8.43092 0
				CHANNELS 3 Zrotation Yrotation Xrotation
				JOINT right_ankle
				{
					OFFSET 0 -8.1974 0
					CHANNELS 3 Zrotation Yrotation Xrotation
					End Site
					{
						OFFSET 0.0 0.0 0.0
					}
				}
			}
		}
		JOINT left_hip
		{
			OFFSET 0 0 -1.69774
			CHANNELS 3 Zrotation Yrotation Xrotation
			JOINT left_knee
			{
				OFFSET 0 -8.43092 0
				CHANNELS 3 Zrotation Yrotation Xrotation
				JOINT left_ankle
				{
					OFFSET 0 -8.1974 0
					CHANNELS 3 Zrotation Yrotation Xrotation
					End Site
					{
						OFFSET 0.0 0.0 0.0
					}
				}
			}
		}
	}
	JOINT red_arrow
	{
		OFFSET 0 0 0
		CHANNELS 3 Zrotation Yrotation Xrotation
		End Site
		{
			OFFSET 0.0 0.0 0.0
		}
	}
	JOINT blue_arrow
	{
		OFFSET 0 0 0
		CHANNELS 3 Zrotation Yrotation Xrotation
		End Site
		{
			OFFSET 0.0 0.0 0.0
		}
	}
}
MOTION
Frames: 6
Frame Time: 0.0333333333333333
-16.8318663597107 0 0.084533216804266 0 7.29834742221233 0 0 16.4891426920891 0 -32.565314817667 -0.287664574860851 10.129568855691 -10.0719321250916 -2.31982277765286 3.73487870232677 -18.3387731068563 -7.47163285401502 4.24139357106839 21.7253567236772 11.6973471467995 -2.63211179501467 30.4679131892015 0 0 0 0 0 32.989674261814 -26.0180148162867 10.6509228016523 13.1888067118022 0 0 0 0 0 46.4333704601489 -4.74478313160501 -11.5755004149293 -44.4333994945461 0 0 30.4077582024597 -5.50600808051399 1.97960199391437 54.2859786504074 4.34084715559492 -1.74203035413472 -36.1383635589028 0 0 13.7980230522125 -1.11376594519571 -5.14310874395613 0 0 0 0 0 0
-16.5066926240921 0 0.220598790049553 0 7.15318754664392 0 0 16.8401884555817 0 -28.3481868466945 -2.42771177596127 10.1191006261719 -9.65057055951223 -1.87018441699597 3.35268617225688 -20.785138556834 -8.26273773670311 5.2921135581054 17.6865559097623 9.53949197594949 -2.85903301619634 32.3040217173573 0 0 0 0 0 28.1193046686673 -22.2979505846056 10.4290695557107 14.1604574702972 0 0 0 0 0 37.2950214096841 -5.32085443103544 -9.99015214002824 -36.3768976703817 0 0 27.0567696547155 -5.57605783689273 1.51389064527779 44.8717613709361 3.64233616701137 -1.10163475391366 -28.728192290613 0 0 10.7998234091316 0.747318373235874 -5.67612060950497 0 0 0 0 0 0
-16.2076538860798 0 0.37400318980217 0 6.87701840091623 0 0 17.1265798091888 0 -24.8309059991423 -4.7644605552853 10.0213334204363 -8.88988137313425 -1.44919640722522 2.90241496628118 -22.7502801634519 -8.94275374205214 6.20842510574836 14.5714261881464 7.85627417394609 -3.12415554821874 32.5843019450433 0 0 0 0 0 23.6350551393851 -18.9177234562955 10.0950032611216 14.3056186269538 0 0 0 0 0 28.8688064797291 -5.14892019711305 -8.43892416332199 -28.4209584289148 0 0 23.2849689253859 -5.02386981371259 1.1537952763748 36.2884188988747 2.91387472214052 -0.299115694209113 -21.4729843542125 0 0 7.33430349980935 2.91612473252578 -6.34508278963576 0 0 0 0 0 0
-15.9449024140835 0 0.550097945332527 0 6.47583087473256 0 0 17.3469677686691 0 -21.9215561217727 -7.07722306313523 9.84569016865237 -7.86419029071075 -1.05485984334807 2.43186303406816 -24.3903417572791 -9.52907656580386 6.97784176824093 12.1141024822796 6.42115434829121 -3.38301797488574 31.9551732205935 0 0 0 0 0 19.7404896007274 -16.0348709633821 9.61162088224606 14.041887093853 0 0 0 0 0 21.532686783892 -4.61832530829754 -7.09074093526191 -21.1998365515672 0 0 19.2211507755115 -4.20357265436418 0.835189171692002 28.4534644855153 2.24714654782384 0.56510597809726 -14.32993666172 0 0 3.42385681588122 5.30437117084493 -7.16524310040297 0 0 0 0 0 0
-15.7270099818707 0 0.750721317529678 0 5.96920323066686 0 0 17.5032209515572 0 -19.5370155138358 -9.08122802273872 9.63038639082528 -6.71676550406923 -0.754324031473094 1.98625913240972 -25.5384250377322 -10.0177029690496 7.48342837759659 9.94240962579605 5.08434766687503 -3.47149499384627 31.053776080354 0 0 0 0 0 16.5008356971709 -13.5929268357941 9.00759075565265 13.640868758435 0 0 0 0 0 15.3269991996976 -3.87078176979364 -5.98581536559267 -14.9230105250886 0 0 15.3224742621904 -3.42543875949622 0.422014948729183 21.6409334832174 1.67640448073841 1.43090883885499 -7.8279005152859 0 0 -0.865130041760858 7.5114877382336 -8.21164926667807 0 0 0 0 0 0
-15.5533762216568 0 0.971042922139168 0 5.38405999954316 0 0 17.5970790863037 0 -17.5218901658068 -10.6138761175586 9.43108865244032 -5.61357567007046 -0.540410330355177 1.58086521561563 -26.3529038632539 -10.4353087081321 7.77891924767646 8.01286706410423 3.91385305734862 -3.3555578828409 30.026515629184 0 0 0 0 0 13.9489214240427 -11.6535555067574 8.41537678441328 13.1308380425426 0 0 0 0 0 10.1072682403741 -2.99360832792863 -5.12952588117456 -9.66779382201549 0 0 12.0792293070889 -2.9094080287385 -0.116917040242797 15.8356520576429 1.18586076376762 2.28137219247986 -2.17043092010224 0 0 -5.1415985352954 9.01294826310149 -9.46512211059448 0 0 0 0 0 0
